<?xml version="1.0" encoding="UTF-8" standalone="no"?>
<svg width="101px" height="51px" viewBox="0 0 101 51" version="1.1" xmlns="http://www.w3.org/2000/svg" xmlns:xlink="http://www.w3.org/1999/xlink" xmlns:sketch="http://www.bohemiancoding.com/sketch/ns">
    <!-- Generator: Sketch 3.4.2 (15857) - http://www.bohemiancoding.com/sketch -->
    <title>Cirro-Logo-White</title>
    <desc>Created with Sketch.</desc>
    <defs></defs>
    <g id="Page-1" stroke="none" stroke-width="1" fill="none" fill-rule="evenodd" sketch:type="MSPage">
        <g id="Cirro-Logo-White" sketch:type="MSLayerGroup" fill="#FFFFFF">
            <path d="M12.6702,40.4862 L12.6702,50.7902 L19.5602,50.7902 L19.5602,48.9302 L14.8832,48.9302 L14.8832,46.5682 L18.5882,46.5682 L18.5882,44.7082 L14.8832,44.7082 L14.8832,42.3472 L19.5602,42.3472 L19.5602,40.4862 L12.6702,40.4862 Z" id="Fill-1" sketch:type="MSShapeGroup"></path>
            <path d="M31.9662,40.4862 L31.9662,46.6532 L27.7312,40.4862 L26.1862,40.4862 L26.1862,50.7902 L28.3992,50.7902 L28.3992,44.9802 L32.1672,50.7902 L34.1802,50.7902 L34.1802,40.4862 L31.9662,40.4862 Z" id="Fill-2" sketch:type="MSShapeGroup"></path>
            <path d="M41.103,40.4862 L41.103,50.7902 L47.993,50.7902 L47.993,48.9302 L43.316,48.9302 L43.316,46.5682 L47.022,46.5682 L47.022,44.7082 L43.316,44.7082 L43.316,42.3472 L47.993,42.3472 L47.993,40.4862 L41.103,40.4862 Z" id="Fill-3" sketch:type="MSShapeGroup"></path>
            <path d="M56.8253,45.547 L58.2923,45.547 C59.5063,45.547 60.2303,44.955 60.2303,43.962 C60.2303,42.959 59.4623,42.361 58.1743,42.361 L56.8253,42.361 L56.8253,45.547 Z M61.9013,51 C61.3673,51 60.8223,50.829 60.4103,50.532 C59.8213,50.106 59.4063,49.47 59.0073,48.856 L58.8803,48.661 C58.8243,48.575 58.7623,48.468 58.6993,48.353 C58.4213,47.866 58.0413,47.2 57.4393,47.2 L56.8253,47.2 L56.8253,50.79 L54.6123,50.79 L54.6123,40.486 L58.1313,40.486 C60.9323,40.486 62.2383,41.605 62.2383,44.006 C62.2383,45.588 60.9003,46.576 60.1923,46.79 C60.1923,46.79 60.4183,47.195 60.5083,47.36 C60.6863,47.693 60.9313,48.15 61.1653,48.505 C61.5613,49.112 62.2783,49.516 63.0343,49.555 C63.0683,49.557 63.1033,49.558 63.1363,49.558 C63.3843,49.558 63.6403,49.513 63.8733,49.428 C63.7463,50.191 63.1553,50.801 62.3593,50.956 C62.2133,50.986 62.0593,51 61.9013,51 L61.9013,51 Z" id="Fill-4" sketch:type="MSShapeGroup"></path>
            <path d="M72.5353,50.9078 C69.7343,50.9078 68.5913,49.3978 68.5913,45.6978 C68.5913,42.0118 69.8073,40.3688 72.5353,40.3688 C75.0463,40.3688 76.0583,41.7728 76.2483,43.9378 L74.2333,44.4068 C74.1793,43.0658 73.5663,42.3028 72.5353,42.3028 C71.0383,42.3028 70.8323,43.9348 70.8323,45.6978 C70.8323,47.7198 71.1173,48.9738 72.5353,48.9738 C73.7133,48.9738 74.2383,48.4568 74.2383,47.3008 L74.2383,46.9058 L72.6063,46.9058 L72.6063,45.6068 L76.2453,45.6068 L76.2453,47.2268 C76.2453,49.7388 75.0673,50.9078 72.5353,50.9078" id="Fill-6" sketch:type="MSShapeGroup"></path>
            <path d="M84.5191,50.79 L84.5191,47.117 L81.5831,40.486 L84.0071,40.486 L85.7271,44.922 L87.4781,40.486 L89.7121,40.486 L86.7321,47.087 L86.7321,50.79 L84.5191,50.79 Z" id="Fill-8" sketch:type="MSShapeGroup"></path>
            <path d="M38.1548,7.9779 C40.2408,7.9779 41.9328,6.2869 41.9328,4.2029 C41.9328,2.1149 40.2408,0.4239 38.1548,0.4239 C36.0688,0.4239 34.3778,2.1149 34.3778,4.2029 C34.3778,6.2869 36.0688,7.9779 38.1548,7.9779" id="Fill-10" sketch:type="MSShapeGroup"></path>
            <path d="M93.008,24.4843 C90.387,30.2973 86.385,34.1623 84.069,33.1193 C81.753,32.0743 82.002,26.5153 84.624,20.7023 C86.361,16.8503 88.705,13.8553 90.761,12.5753 C91.706,11.9403 92.581,11.6953 93.292,11.9463 C93.376,11.9753 93.455,12.0123 93.531,12.0553 C93.541,12.0583 93.552,12.0613 93.563,12.0673 C95.878,13.1103 95.63,18.6693 93.008,24.4843 M96.069,10.7773 C93.724,9.7663 90.75,9.7863 87.785,10.6603 C87.02,10.8943 86.202,11.2033 85.355,11.6153 C83.16,12.7163 76.869,16.6063 75.258,25.6643 C75.227,25.8623 75.193,26.0743 75.152,26.3003 L75.152,26.3073 C74.802,28.2943 74.061,31.2713 72.151,32.6153 C71.505,33.1943 70.691,33.4843 69.87,33.3343 C69.117,33.1983 68.499,32.7173 68.091,32.0433 C66.016,29.1113 68.515,24.3113 69.822,22.1963 C70.043,21.8263 70.264,21.4883 70.479,21.1943 C70.506,21.1563 70.52,21.1363 70.52,21.1363 C72.794,18.0613 71.323,17.5273 69.718,16.5913 C68.114,15.6543 66.321,14.0473 66.321,14.0473 C63.992,11.7403 64.304,9.7043 62.364,10.2093 C60.426,10.7113 60.426,14.9193 60.426,14.9193 C60.449,16.0693 60.14,18.5643 59.476,21.3593 C58.54,25.2513 57.016,28.4593 56.951,28.5963 C56.949,28.6003 56.947,28.6043 56.945,28.6073 C52.933,35.9063 49.72,32.0853 49.633,31.9813 C47.647,29.3723 50.085,23.5963 51.945,21.0813 C54.217,18.0063 52.746,17.4703 51.142,16.5363 C49.537,15.5993 47.745,13.9933 47.745,13.9933 C45.415,11.6873 45.726,9.6493 43.787,10.1543 C41.849,10.6563 41.849,14.8643 41.849,14.8643 C41.916,18.2063 39.175,32.9153 33.092,33.3153 C27.008,33.7183 31.888,21.8163 35.031,16.8033 C38.173,11.7893 35.698,10.5183 35.698,10.5183 C32.29,8.9143 28.612,12.5903 26.139,21.6153 C25.784,22.9113 25.568,24.0943 25.455,25.1753 L25.454,25.1643 C25.454,25.1643 24.548,31.3333 16.765,32.8933 C16.722,32.9023 16.679,32.9103 16.636,32.9183 C16.393,32.9633 16.145,33.0073 15.89,33.0443 C15.836,33.0513 15.782,33.0593 15.728,33.0663 C15.687,33.0723 15.647,33.0783 15.606,33.0833 C13.003,33.3953 11.502,32.7783 10.893,32.4343 C9.378,31.4993 7.599,29.5383 7.755,25.4943 C8.022,18.5403 14.105,11.3873 17.315,12.3913 C17.315,12.3913 18.211,12.7743 17.047,14.3303 C16.015,15.7083 14.869,17.2883 15.07,18.9383 L15.07,18.9513 C15.075,18.9873 15.082,19.0243 15.087,19.0593 C15.316,20.7433 16.756,22.0413 18.502,22.0413 C19.02,22.0413 19.509,21.9253 19.95,21.7203 L19.955,21.7243 C22.524,20.6773 22.574,16.1003 22.574,16.1003 C22.73,13.1223 21.408,9.9843 16.847,9.9843 C8.557,9.9843 0,18.2063 0,25.4273 C0,29.5103 3.671,34.5193 9.388,35.5733 C10.421,35.8093 11.498,35.9143 12.591,35.8943 L12.591,35.8973 C20.066,35.8623 24.438,30.5423 25.502,29.0793 L25.505,29.1423 C25.511,29.1933 25.517,29.2413 25.524,29.2923 C25.645,30.4983 26.077,32.7753 27.604,34.2013 C27.732,34.3263 27.81,34.3843 27.81,34.3843 C27.819,34.3923 27.827,34.3963 27.836,34.4033 C27.962,34.5083 28.092,34.6073 28.233,34.6983 C28.242,34.7043 28.253,34.7103 28.262,34.7173 C28.886,35.1353 29.499,35.3883 30.074,35.5293 C32.472,36.1503 35.544,35.1913 39.463,30.4653 C39.848,30.0133 40.211,29.5513 40.551,29.0843 C40.56,29.0723 40.569,29.0613 40.577,29.0503 C44.318,23.8933 45.408,18.0863 45.516,17.4613 C45.904,17.7453 46.654,18.2153 47.985,18.8003 C47.993,18.8043 48,18.8073 48,18.8073 C48,18.8073 43.052,25.6943 44.791,31.3093 C45.875,34.8133 48.287,35.5323 49.948,35.5783 C57.601,36.0133 62.401,23.1673 62.401,23.1673 L62.401,23.1663 C63.704,19.9513 64.104,17.4593 64.104,17.4593 C64.113,17.4643 64.123,17.4723 64.133,17.4783 C64.408,17.7083 65.104,18.2093 66.57,18.8733 C66.427,19.0733 61.656,25.8343 63.368,31.3643 C64.011,33.4433 65.12,34.5393 66.263,35.0993 C66.263,35.0993 66.357,35.1503 66.534,35.2233 C67.477,35.6063 69.654,36.1453 72.32,34.5553 C72.818,34.2493 73.336,33.8733 73.871,33.4163 C73.905,33.3863 73.941,33.3583 73.974,33.3283 C74.748,32.6523 75.558,31.8063 76.395,30.7503 C76.684,31.2873 77.021,31.7603 77.37,32.1763 L77.368,32.1763 C77.368,32.1763 77.432,32.2553 77.553,32.3873 C77.568,32.4043 77.583,32.4203 77.598,32.4373 C78.268,33.1743 78.961,33.7023 79.458,34.0293 C80.913,35.0333 83.096,36.0703 85.912,36.0853 L86.021,36.0853 C86.064,36.0853 86.107,36.0883 86.151,36.0873 L86.148,36.0853 C88.211,36.0733 90.796,35.5503 93.711,33.8403 L93.711,33.8393 C103.244,28.4043 102.264,13.4453 96.069,10.7773" id="Fill-13" sketch:type="MSShapeGroup"></path>
            <path d="M92.6814,40.9426 C92.6694,40.9616 92.6574,40.9766 92.6434,40.9846 C92.6304,40.9946 92.6154,40.9996 92.5954,40.9996 C92.5744,40.9996 92.5484,40.9886 92.5194,40.9666 C92.4894,40.9446 92.4544,40.9216 92.4104,40.8956 C92.3664,40.8696 92.3134,40.8456 92.2524,40.8246 C92.1914,40.8026 92.1164,40.7926 92.0294,40.7926 C91.9464,40.7926 91.8744,40.8026 91.8114,40.8266 C91.7484,40.8476 91.6964,40.8786 91.6544,40.9156 C91.6114,40.9536 91.5794,40.9986 91.5574,41.0496 C91.5364,41.1016 91.5254,41.1566 91.5254,41.2156 C91.5254,41.2916 91.5444,41.3556 91.5814,41.4046 C91.6184,41.4556 91.6684,41.4986 91.7304,41.5336 C91.7904,41.5686 91.8614,41.5986 91.9394,41.6246 C92.0174,41.6516 92.0974,41.6776 92.1784,41.7056 C92.2604,41.7346 92.3394,41.7656 92.4174,41.8006 C92.4954,41.8346 92.5654,41.8796 92.6274,41.9326 C92.6884,41.9846 92.7384,42.0506 92.7754,42.1276 C92.8134,42.2046 92.8314,42.3006 92.8314,42.4136 C92.8314,42.5326 92.8104,42.6436 92.7704,42.7486 C92.7294,42.8526 92.6704,42.9436 92.5924,43.0216 C92.5144,43.0986 92.4184,43.1596 92.3054,43.2036 C92.1934,43.2476 92.0634,43.2696 91.9184,43.2696 C91.7414,43.2696 91.5804,43.2376 91.4374,43.1736 C91.2924,43.1096 91.1684,43.0236 91.0664,42.9146 L91.1724,42.7396 C91.1824,42.7266 91.1934,42.7146 91.2094,42.7046 C91.2244,42.6956 91.2394,42.6916 91.2584,42.6916 C91.2744,42.6916 91.2934,42.6966 91.3134,42.7096 C91.3344,42.7236 91.3584,42.7406 91.3854,42.7606 C91.4124,42.7806 91.4424,42.8026 91.4764,42.8266 C91.5094,42.8516 91.5494,42.8726 91.5934,42.8936 C91.6374,42.9146 91.6864,42.9296 91.7424,42.9436 C91.7984,42.9576 91.8604,42.9646 91.9314,42.9646 C92.0184,42.9646 92.0954,42.9516 92.1634,42.9276 C92.2334,42.9036 92.2904,42.8696 92.3374,42.8266 C92.3864,42.7826 92.4224,42.7296 92.4474,42.6696 C92.4724,42.6086 92.4844,42.5406 92.4844,42.4666 C92.4844,42.3826 92.4664,42.3166 92.4294,42.2636 C92.3914,42.2116 92.3424,42.1666 92.2824,42.1316 C92.2214,42.0966 92.1514,42.0666 92.0724,42.0416 C91.9954,42.0166 91.9144,41.9926 91.8334,41.9656 C91.7514,41.9396 91.6724,41.9096 91.5944,41.8756 C91.5164,41.8416 91.4454,41.7966 91.3854,41.7426 C91.3244,41.6876 91.2754,41.6196 91.2374,41.5386 C91.2004,41.4556 91.1814,41.3556 91.1814,41.2346 C91.1814,41.1376 91.2004,41.0456 91.2374,40.9556 C91.2754,40.8666 91.3294,40.7856 91.4014,40.7156 C91.4724,40.6466 91.5604,40.5906 91.6654,40.5496 C91.7704,40.5066 91.8894,40.4866 92.0254,40.4866 C92.1774,40.4866 92.3164,40.5106 92.4404,40.5596 C92.5654,40.6066 92.6754,40.6756 92.7704,40.7676 L92.6814,40.9426 Z" id="Fill-16" sketch:type="MSShapeGroup"></path>
            <path d="M96.1825,40.5167 L96.1825,43.2397 L95.8595,43.2397 L95.8595,41.2387 C95.8595,41.2117 95.8615,41.1837 95.8625,41.1527 C95.8645,41.1217 95.8665,41.0917 95.8695,41.0607 L94.9345,42.7627 C94.9055,42.8197 94.8615,42.8477 94.8015,42.8477 L94.7475,42.8477 C94.6885,42.8477 94.6445,42.8197 94.6155,42.7627 L93.6615,41.0517 C93.6695,41.1197 93.6725,41.1817 93.6725,41.2387 L93.6725,43.2397 L93.3495,43.2397 L93.3495,40.5167 L93.6215,40.5167 C93.6535,40.5167 93.6795,40.5207 93.6975,40.5267 C93.7155,40.5327 93.7325,40.5497 93.7495,40.5797 L94.6905,42.2547 C94.7045,42.2857 94.7195,42.3177 94.7345,42.3497 C94.7485,42.3827 94.7625,42.4167 94.7755,42.4507 C94.7875,42.4167 94.8015,42.3827 94.8145,42.3497 C94.8295,42.3157 94.8445,42.2837 94.8605,42.2527 L95.7845,40.5797 C95.7995,40.5497 95.8165,40.5327 95.8345,40.5267 C95.8535,40.5207 95.8775,40.5167 95.9105,40.5167 L96.1825,40.5167 Z" id="Fill-18" sketch:type="MSShapeGroup"></path>
        </g>
    </g>
</svg>